<?xml version="1.0" standalone="no"?>
<!DOCTYPE svg PUBLIC "-//W3C//DTD SVG 20010904//EN"
 "http://www.w3.org/TR/2001/REC-SVG-20010904/DTD/svg10.dtd">
<svg version="1.0" xmlns="http://www.w3.org/2000/svg" fill='#ffffff'
 width="131.000000pt" height="131.000000pt"  viewBox="0 0 131.000000 131.000000"
 preserveAspectRatio="xMidYMid meet">
<metadata>
Created by potrace 1.10, written by Peter Selinger 2001-2011
</metadata>
<g transform="translate(0.000000,131.000000) scale(0.100000,-0.100000)"
fill="#ffffff" stroke="none">
<path d="M478 1257 c-130 -40 -251 -127 -335 -241 l-44 -61 33 -3 c28 -3 37 2
62 35 75 95 169 165 276 204 56 21 83 24 190 24 107 0 134 -3 190 -24 177 -65
311 -208 364 -390 20 -70 21 -218 1 -295 -50 -192 -208 -352 -404 -410 -30 -9
-56 -16 -58 -16 -2 0 -3 122 -3 270 l0 270 104 0 105 0 -4 -105 -3 -105 29 0
29 0 0 240 0 240 -28 0 -29 0 3 -105 2 -105 -134 0 -134 0 0 -330 0 -330 31 0
c52 0 150 29 228 68 92 45 209 158 263 250 20 35 46 100 58 145 31 113 25 279
-13 379 -52 137 -136 242 -251 318 -107 69 -190 93 -331 97 -102 2 -131 0
-197 -20z"/>
<path d="M54 838 c-25 -79 -30 -257 -9 -338 58 -227 237 -407 461 -464 34 -9
78 -16 98 -16 33 0 36 2 36 29 0 27 -2 28 -59 34 -199 21 -384 170 -461 372
-28 75 -38 253 -18 328 l13 49 195 -1 195 -1 23 -27 c18 -20 22 -33 18 -57
-11 -54 -36 -66 -142 -66 l-94 0 0 -135 0 -135 30 0 31 0 -5 105 -6 105 65 0
c103 0 145 24 170 96 17 49 4 99 -34 138 l-31 31 -230 3 -229 3 -17 -53z"/>
<path d="M690 815 l0 -75 30 0 30 0 0 75 0 75 -30 0 -30 0 0 -75z"/>
<path d="M485 498 c19 -35 39 -69 44 -76 4 -8 21 -12 39 -10 l31 3 -42 72
c-39 67 -45 73 -75 73 l-33 0 36 -62z"/>
</g>
</svg>
