<svg xmlns="http://www.w3.org/2000/svg" xmlns:xlink="http://www.w3.org/1999/xlink" viewBox="0,0,255.98959,255.98959" width="144px" height="144px"><g fill="none" fill-rule="nonzero" stroke="none" stroke-width="none" stroke-linecap="none" stroke-linejoin="none" stroke-miterlimit="10" stroke-dasharray="" stroke-dashoffset="0" font-family="none" font-weight="none" font-size="none" text-anchor="none" style="mix-blend-mode: normal"><g transform="scale(5.33333,5.33333)"><circle cx="35" cy="14" r="2.5" fill="#409aff" stroke="none" stroke-width="1" stroke-linecap="butt" stroke-linejoin="miter"></circle><path d="M27.7,38.4c1.5,-1.6 2.7,-3.5 3.3,-5.7l-1.2,-1c-0.8,-0.7 -1.3,-1.7 -1.3,-2.7c0,-1 0.5,-2 1.3,-2.7l1.2,-1c-0.6,-2.2 -1.8,-4.1 -3.3,-5.7l-1.4,0.5c-1,0.4 -2.1,0.3 -3,-0.2c-0.9,-0.5 -1.5,-1.4 -1.7,-2.5l-0.3,-1.5c-1.1,-0.3 -2.2,-0.4 -3.3,-0.4c-1.1,0 -2.2,0.2 -3.3,0.4" fill="none" stroke="#409aff" stroke-width="3" stroke-linecap="round" stroke-linejoin="round"></path><path d="M12.8,19.9c-0.9,0.5 -2,0.6 -3,0.2l-1.4,-0.5c-1.5,1.6 -2.7,3.5 -3.3,5.7l1.2,1c0.7,0.7 1.2,1.7 1.2,2.7c0,1 -0.5,2 -1.3,2.7l-1.2,1c0.6,2.2 1.8,4.1 3.3,5.7l1.4,-0.5c1,-0.4 2.1,-0.3 3,0.2c0.9,0.5 1.5,1.4 1.7,2.5l0.2,1.5c1.1,0.3 2.2,0.4 3.3,0.4c1.1,0 2.2,-0.2 3.3,-0.4l0.2,-1.5c0.2,-1 0.8,-1.9 1.7,-2.5" fill="none" stroke="#409aff" stroke-width="3" stroke-linecap="round" stroke-linejoin="round"></path><circle cx="18" cy="29" r="4.5" fill="none" stroke="#409aff" stroke-width="3" stroke-linecap="butt" stroke-linejoin="miter"></circle><path d="M35,23.2c0.8,0 1.6,-0.1 2.3,-0.3l0.2,-1.1c0.1,-0.7 0.6,-1.3 1.2,-1.7c0.6,-0.4 1.4,-0.4 2.1,-0.2l1,0.4c1.1,-1.1 1.9,-2.4 2.3,-4l-0.8,-0.7c-0.6,-0.5 -0.9,-1.2 -0.9,-1.9c0,-0.7 0.3,-1.4 0.9,-1.9l0.8,-0.7c-0.4,-1.5 -1.2,-2.9 -2.3,-4l-1,0.4c-0.8,0.5 -1.5,0.4 -2.2,0.1c-0.6,-0.4 -1.1,-1 -1.2,-1.7l-0.2,-1.1c-0.7,-0.2 -1.5,-0.3 -2.3,-0.3c-0.8,0 -1.6,0.1 -2.3,0.3l-0.2,1.1c-0.1,0.7 -0.6,1.3 -1.2,1.7c-0.5,0.3 -1.2,0.4 -1.9,0.1l-1,-0.4c-1.1,1.1 -1.9,2.4 -2.3,4l0.8,0.7c0.6,0.5 0.9,1.2 0.9,1.9" fill="none" stroke="#409aff" stroke-width="3" stroke-linecap="round" stroke-linejoin="round"></path></g></g></svg>