<svg xmlns="http://www.w3.org/2000/svg" xmlns:xlink="http://www.w3.org/1999/xlink" viewBox="0,0,255.98959,255.98959" width="144px" height="144px"><g fill="none" fill-rule="nonzero" stroke="#409aff" stroke-width="3" stroke-linecap="round" stroke-linejoin="round" stroke-miterlimit="10" stroke-dasharray="" stroke-dashoffset="0" font-family="none" font-weight="none" font-size="none" text-anchor="none" style="mix-blend-mode: normal"><g transform="scale(5.33333,5.33333)"><path d="M37.1,10.9c-6.8,6.6 -16,10.6 -26.1,10.6c-1.8,0 -3.5,-0.1 -5.3,-0.4"></path><path d="M28.2,25.2c1.9,-0.5 4,-0.7 6,-0.7c2.8,0 5.6,0.5 8.2,1.3"></path><path d="M11.5,37.6c2.4,-4.2 5.9,-7.6 10.2,-9.9"></path><path d="M32.6,40.4c-2.4,-12.5 -7.7,-24 -15.3,-33.6"></path><path d="M42.4,22.4c0,0.5 0.1,1.1 0.1,1.6c0,10.2 -8.3,18.5 -18.5,18.5c-8.2,0 -15.2,-5.4 -17.6,-12.8"></path><path d="M5.7,21.1c1.4,-8.9 9,-15.6 18.3,-15.6c7.3,0 13.7,4.3 16.7,10.5"></path></g></g></svg>