<svg xmlns="http://www.w3.org/2000/svg" xmlns:xlink="http://www.w3.org/1999/xlink" viewBox="0,0,255.98959,255.98959" width="144px" height="144px"><g fill="none" fill-rule="nonzero" stroke="#ffffff" stroke-width="3" stroke-linecap="round" stroke-linejoin="round" stroke-miterlimit="10" stroke-dasharray="" stroke-dashoffset="0" font-family="none" font-weight="none" font-size="none" text-anchor="none" style="mix-blend-mode: normal"><g transform="scale(5.33333,5.33333)"><path d="M12,30.5c-3.6,0 -6.5,-2.9 -6.5,-6.5c0,-3.6 2.9,-6.5 6.5,-6.5c3.6,0 6.5,2.9 6.5,6.5"></path><path d="M36.5,5.5c3.3,0 6,2.7 6,6c0,3.3 -2.7,6 -6,6c-3.3,0 -6,-2.7 -6,-6c0,-0.1 0,-0.1 0,-0.2"></path><path d="M36,42.5c-3.6,0 -6.5,-2.9 -6.5,-6.5c0,-3.6 2.9,-6.5 6.5,-6.5c3.6,0 6.5,2.9 6.5,6.5c0,0.7 -0.1,1.4 -0.3,2.1"></path><path d="M18.5,24h8l6.1,-7.7"></path><path d="M26.5,24l5.4,6.8"></path></g></g></svg>