<svg xmlns="http://www.w3.org/2000/svg" xmlns:xlink="http://www.w3.org/1999/xlink" viewBox="0,0,255.98959,255.98959" width="144px" height="144px"><g fill="#409aff" fill-rule="nonzero" stroke="none" stroke-width="1" stroke-linecap="butt" stroke-linejoin="miter" stroke-miterlimit="10" stroke-dasharray="" stroke-dashoffset="0" font-family="none" font-weight="none" font-size="none" text-anchor="none" style="mix-blend-mode: normal"><g transform="scale(5.33333,5.33333)"><path d="M24,3.99805c-11.02771,0 -20,8.97229 -20,20c0,0.75571 0.04285,1.50326 0.125,2.23828c0.04558,0.54407 0.38315,1.02041 0.88137,1.24371c0.49822,0.2233 1.07842,0.15828 1.51486,-0.16975c0.43644,-0.32803 0.66021,-0.86728 0.58423,-1.40794c-0.06985,-0.62498 -0.10547,-1.26001 -0.10547,-1.9043c0,-9.40629 7.59371,-17 17,-17c6.27615,0 11.73893,3.39007 14.6875,8.43359c0.26487,0.47379 0.76502,0.76755 1.30782,0.76813c0.5428,0.00058 1.04358,-0.29211 1.30946,-0.76533c0.26588,-0.47323 0.25539,-1.05317 -0.02744,-1.51647c-3.46943,-5.93447 -9.91949,-9.91992 -17.27734,-9.91992zM17.24023,15c-0.319,0 -0.83444,0.11966 -1.27344,0.59766c-0.438,0.476 -1.67187,1.63047 -1.67187,3.98047c0,2.35 1.71022,4.61945 1.94922,4.93945c0.238,0.317 3.3032,5.29498 8.1582,7.20898c4.034,1.59 4.85447,1.27336 5.73047,1.19336c0.876,-0.078 2.82661,-1.15353 3.22461,-2.26953c0.398,-1.116 0.39825,-2.07058 0.28125,-2.26758c-0.119,-0.199 -0.43802,-0.31959 -0.91602,-0.55859c-0.477,-0.239 -2.82372,-1.39373 -3.26172,-1.55273c-0.438,-0.159 -0.75817,-0.23972 -1.07617,0.23828c-0.318,0.478 -1.23272,1.55309 -1.51172,1.87109c-0.279,0.32 -0.55716,0.36009 -1.03516,0.12109c-0.479,-0.241 -2.0158,-0.74409 -3.8418,-2.37109c-1.42,-1.265 -2.3753,-2.82864 -2.6543,-3.30664c-0.278,-0.476 -0.03002,-0.73761 0.20898,-0.97461c0.215,-0.214 0.4778,-0.55694 0.7168,-0.83594c0.237,-0.279 0.31561,-0.47692 0.47461,-0.79492c0.159,-0.317 0.07994,-0.59694 -0.03906,-0.83594c-0.119,-0.239 -1.04766,-2.60187 -1.47266,-3.54687c-0.357,-0.794 -0.73322,-0.81122 -1.07422,-0.82422c-0.278,-0.011 -0.59802,-0.01172 -0.91602,-0.01172zM42.47852,21.20898c-0.42349,-0.00639 -0.82995,0.16653 -1.11903,0.47607c-0.28908,0.30954 -0.43384,0.72686 -0.39855,1.14893c0.02649,0.3828 0.03906,0.76985 0.03906,1.16406c0,9.40629 -7.59371,17 -17,17c-3.00158,0 -5.8094,-0.78052 -8.25781,-2.14453c-0.34512,-0.19235 -0.7522,-0.24078 -1.13281,-0.13477l-7.38672,2.06055l2.0625,-7.38281c0.14424,-0.51641 0.00198,-1.07054 -0.37318,-1.45361c-0.37517,-0.38306 -0.92622,-0.53683 -1.44552,-0.40338c-0.5193,0.13346 -0.92793,0.53386 -1.07192,1.05034l-2.30078,8.23633c-0.50495,1.8034 1.27818,3.58644 3.08203,3.08203l7.76758,-2.16797c2.72738,1.39608 5.78439,2.25781 9.05664,2.25781c11.02771,0 20,-8.97229 20,-20c0,-0.45979 -0.01537,-0.91589 -0.04687,-1.37109c-0.04305,-0.78649 -0.68704,-1.40574 -1.47461,-1.41797z"></path></g></g></svg>