<svg xmlns="http://www.w3.org/2000/svg" xmlns:xlink="http://www.w3.org/1999/xlink" viewBox="0,0,255.98959,255.98959" width="144px" height="144px"><g fill="none" fill-rule="nonzero" stroke="none" stroke-width="none" stroke-linecap="none" stroke-linejoin="none" stroke-miterlimit="10" stroke-dasharray="" stroke-dashoffset="0" font-family="none" font-weight="none" font-size="none" text-anchor="none" style="mix-blend-mode: normal"><g transform="scale(5.33333,5.33333)"><path d="M34.7,39.1c-3,2.1 -6.7,3.4 -10.7,3.4c-10.2,0 -18.5,-8.3 -18.5,-18.5c0,-3 0.7,-5.8 2,-8.4" fill="none" stroke="#ffffff" stroke-width="3" stroke-linecap="round" stroke-linejoin="round"></path><path d="M13.9,8.5c2.9,-1.9 6.3,-3 10.1,-3c10.2,0 18.5,8.3 18.5,18.5c0,3.4 -0.9,6.6 -2.5,9.3" fill="none" stroke="#ffffff" stroke-width="3" stroke-linecap="round" stroke-linejoin="round"></path><path d="M17,29h4v13.2c1,0.2 2,0.3 3,0.3c1,0 2,-0.1 3,-0.3v-13.2h3.6c0.5,0 0.9,-0.4 1,-0.9l0.4,-3c0,-0.3 -0.1,-0.6 -0.2,-0.8c-0.2,-0.2 -0.5,-0.3 -0.8,-0.3h-4v-3.5c0,-1.1 0.9,-2 2,-2h2c0.6,0 1,-0.4 1,-1v-3.4c0,-0.5 -0.4,-1 -0.9,-1c-0.1,0 -1.5,-0.1 -3.3,-0.1c-4.4,0 -6.8,2.6 -6.8,7.4v3.6h-4c-0.6,0 -1,0.4 -1,1v3c0,0.6 0.4,1 1,1z" fill="#ffffff" stroke="none" stroke-width="1" stroke-linecap="butt" stroke-linejoin="miter"></path></g></g></svg>